<svg width="500" height="500" fill="none" xmlns="http://www.w3.org/2000/svg">
    <rect width="500" height="500" rx="250" fill="url(#a)" />
    <g filter="url(#b)">
        <rect width="287" height="182.1" rx="6" transform="rotate(45 5 299)" fill="#fff" />
    </g>
    <g filter="url(#c)">
        <path d="M191 337c-2-2-2-5 0-7l170-163c5-4 12-5 17-1 7 4 9 14 3 21L217 356c-2 2-5 2-7 0l-19-19Z"
            fill="url(#d)" />
    </g>
    <path
        d="M218 223h-13l-3 20h-7l3-20h-11v-7h13l3-17h-12v-7h13l4-20h7l-4 20h13l4-20h7l-4 20h10v7h-11l-3 17h11v7h-13l-4 20h-7l4-20Zm-11-7h13l3-17h-13l-3 17Z"
        fill="#AAA" />
    <rect width="22" height="31.5" rx="2" transform="rotate(-45 512 -35)" fill="#fff" />
    <g filter="url(#e)">
        <path d="M173 353c1-2 3-2 4-1l19 19c1 1 1 3-1 4l-28 9c-2 0-3-1-3-3l9-28Z" fill="url(#f)" />
    </g>
    <defs>
        <linearGradient id="a" x1="250" y1="0" x2="250" y2="500" gradientUnits="userSpaceOnUse">
            <stop stop-color="#6D8BF4" />
            <stop offset="1" stop-color="#1863DA" />
        </linearGradient>
        <linearGradient id="d" x1="377.1" y1="172.4" x2="203.7" y2="346.7" gradientUnits="userSpaceOnUse">
            <stop stop-color="#F1CBAA" />
            <stop offset="1" stop-color="#EEBD93" />
        </linearGradient>
        <linearGradient id="f" x1="184.5" y1="363.1" x2="163" y2="385.6" gradientUnits="userSpaceOnUse">
            <stop stop-color="#EEBD93" />
            <stop offset="1" stop-color="#E3A570" />
        </linearGradient>
        <filter id="b" x="86.5" y="80.5" width="346.8" height="346.7" filterUnits="userSpaceOnUse"
            color-interpolation-filters="sRGB">
            <feFlood flood-opacity="0" result="BackgroundImageFix" />
            <feColorMatrix in="SourceAlpha" values="0 0 0 0 0 0 0 0 0 0 0 0 0 0 0 0 0 0 127 0" result="hardAlpha" />
            <feOffset dx="10" dy="4" />
            <feGaussianBlur stdDeviation="5" />
            <feColorMatrix values="0 0 0 0 0 0 0 0 0 0 0 0 0 0 0 0 0 0 0.25 0" />
            <feBlend in2="BackgroundImageFix" result="effect1_dropShadow_713_2" />
            <feBlend in="SourceGraphic" in2="effect1_dropShadow_713_2" result="shape" />
        </filter>
        <filter id="c" x="185.9" y="163.5" width="202.6" height="201.8" filterUnits="userSpaceOnUse"
            color-interpolation-filters="sRGB">
            <feFlood flood-opacity="0" result="BackgroundImageFix" />
            <feColorMatrix in="SourceAlpha" values="0 0 0 0 0 0 0 0 0 0 0 0 0 0 0 0 0 0 127 0" result="hardAlpha" />
            <feOffset dy="4" />
            <feGaussianBlur stdDeviation="2" />
            <feColorMatrix values="0 0 0 0 0 0 0 0 0 0 0 0 0 0 0 0 0 0 0.25 0" />
            <feBlend in2="BackgroundImageFix" result="effect1_dropShadow_713_2" />
            <feBlend in="SourceGraphic" in2="effect1_dropShadow_713_2" result="shape" />
        </filter>
        <filter id="e" x="160.1" y="351.5" width="40.4" height="40.4" filterUnits="userSpaceOnUse"
            color-interpolation-filters="sRGB">
            <feFlood flood-opacity="0" result="BackgroundImageFix" />
            <feColorMatrix in="SourceAlpha" values="0 0 0 0 0 0 0 0 0 0 0 0 0 0 0 0 0 0 127 0" result="hardAlpha" />
            <feOffset dy="4" />
            <feGaussianBlur stdDeviation="2" />
            <feColorMatrix values="0 0 0 0 0 0 0 0 0 0 0 0 0 0 0 0 0 0 0.25 0" />
            <feBlend in2="BackgroundImageFix" result="effect1_dropShadow_713_2" />
            <feBlend in="SourceGraphic" in2="effect1_dropShadow_713_2" result="shape" />
        </filter>
    </defs>
</svg>